<svg width="16" height="16" viewBox="0 0 16 16" fill="none" xmlns="http://www.w3.org/2000/svg">
<path fill-rule="evenodd" clip-rule="evenodd" d="M13.3332 2.66667C13.7014 2.66667 13.9998 2.96514 13.9998 3.33333V3.99756H3.99984C3.63165 3.99756 3.33317 4.29604 3.33317 4.66423C3.33317 5.03242 3.63165 5.33089 3.99984 5.33089H14.6665C15.0347 5.33089 15.3332 5.03242 15.3332 4.66423V3.33333C15.3332 2.22876 14.4377 1.33333 13.3332 1.33333H10.9422L10.1952 0.586089C9.82014 0.210831 9.3113 0 8.78072 0H7.21879C6.68836 0 6.17965 0.210714 5.80457 0.585786L5.05703 1.33333H2.6665C1.56193 1.33333 0.666504 2.22876 0.666504 3.33333V4.66423C0.666504 5.03242 0.964981 5.33089 1.33317 5.33089C1.70136 5.33089 1.99984 5.03242 1.99984 4.66423V3.33333C1.99984 2.96514 2.29831 2.66667 2.6665 2.66667H5.33317C5.50998 2.66667 5.67955 2.59643 5.80457 2.4714L6.74738 1.5286C6.87241 1.40357 7.04198 1.33333 7.21879 1.33333H8.78072C8.95758 1.33333 9.12719 1.40361 9.25222 1.5287L10.1944 2.4713C10.3195 2.59639 10.4891 2.66667 10.6659 2.66667H13.3332ZM13.4428 6.67574C13.0796 6.61521 12.7361 6.86055 12.6756 7.22373L11.6208 13.5525C11.5136 14.1954 10.9574 14.6667 10.3056 14.6667H5.69409C5.04231 14.6667 4.48605 14.1954 4.3789 13.5525L3.3241 7.22373C3.26357 6.86055 2.92008 6.61521 2.5569 6.67574C2.19372 6.73627 1.94838 7.07975 2.00891 7.44293L3.06371 13.7717C3.27801 15.0576 4.39052 16 5.69409 16H10.3056C11.6092 16 12.7217 15.0576 12.936 13.7717L13.9908 7.44293C14.0513 7.07975 13.806 6.73627 13.4428 6.67574ZM9.25048 13.3282C9.61583 13.3739 9.94902 13.1147 9.99469 12.7494L10.6614 7.41602C10.707 7.05068 10.4479 6.71748 10.0825 6.67182C9.71718 6.62615 9.38399 6.8853 9.33832 7.25064L8.67165 12.584C8.62598 12.9493 8.88513 13.2825 9.25048 13.3282ZM7.32802 12.584C7.37369 12.9493 7.11454 13.2825 6.74919 13.3282C6.38385 13.3739 6.05065 13.1147 6.00499 12.7494L5.33832 7.41602C5.29265 7.05068 5.5518 6.71748 5.91715 6.67182C6.28249 6.62615 6.61569 6.8853 6.66136 7.25064L7.32802 12.584Z" fill="#C2C7D0"/>
</svg>
